<svg width="313" height="141" viewBox="0 0 313 141" fill="none" xmlns="http://www.w3.org/2000/svg" style="">
<path d="M23.3586 135.984C30.0379 118.861 42.3182 85.9888 50.1613 70.7894C42.5 58.9327 34.9968 34.0236 27.9127 12C27.9127 12 18.6622 56.7619 5 72.2715C19.5161 97.961 23.3586 136.914 23.3586 135.984ZM23.3586 135.984C26.3947 117.372 30 83.1401 30 83.1401C30 83.1401 41.3378 113.77 55 113.77" stroke="black" stroke-width="10" stroke-linecap="round" stroke-linejoin="round" class="oZxpcRIq_0"></path>
<path d="M69.9027 12C77.8053 18.8596 80.937 36.6053 62 50.9211C71.7171 54.8476 80.7767 110.921 91.531 131C94.9618 108.634 88.2035 65.2368 109 12" stroke="black" stroke-width="10" stroke-linecap="round" stroke-linejoin="round" class="oZxpcRIq_1"></path>
<path d="M150 30.0573C144.487 25.2544 132.275 13.5665 130.25 12.0673C128.224 10.5681 118.096 34.5549 116.07 40.0517M116.07 40.0517C124.411 40.3878 132.782 40.9332 141.095 41.6823C132.782 41.0505 124.169 40.2691 116.07 40.0517ZM116.07 40.0517C115.058 51.5453 125.192 111.22 132.189 132.52C133.461 135.653 140.458 125.003 150 53.5852" stroke="black" stroke-width="10" stroke-linecap="round" stroke-linejoin="round" class="oZxpcRIq_2"></path>
<path d="M177.247 49.8919C178.634 45.1622 198.062 25.5676 198.756 24.8919C180.993 41.1081 169.615 20.3874 166.145 8C164.48 13.4054 165.452 50.3423 166.145 68.1351M177.247 49.8919C183.029 55.5225 196.674 67.3243 205 69.4865C205 70.1622 187.654 108 170.308 133C167.533 125.117 162.815 101.108 166.145 68.1351M177.247 49.8919C174.009 52.1441 167.256 58.9459 166.145 68.1351M177.247 49.8919C173.546 52.1441 166.145 58.9459 166.145 68.1351" stroke="black" stroke-width="10" stroke-linecap="round" stroke-linejoin="round" class="oZxpcRIq_3"></path>
<path d="M220 133C220.354 113.772 220.777 84.9699 220.924 59.6222M220.924 59.6222C221.082 32.2641 220.918 8.92988 220 6C224.422 16.113 236.361 34.7867 248.742 28.5778C240.268 35.8685 222.841 52.2844 220.924 59.6222ZM220.924 59.6222C226.02 54.9185 234.276 47.4867 240.761 55.3889C244.407 59.8313 247.903 75.1198 250.715 90.985C252.153 99.1015 247.681 131.09 247.681 131.09" stroke="black" stroke-width="10" stroke-linecap="round" stroke-linejoin="round" class="oZxpcRIq_4"></path>
<path d="M267.714 134C273.931 99.5511 286.216 25.5227 285.619 5C286.365 5 300.54 121.54 308 134M261 65.1023C269.206 67.5455 285.619 74.0443 285.619 80.4943C291.836 73.4091 305.016 59.3852 308 59.9716" stroke="black" stroke-width="10" stroke-linecap="round" stroke-linejoin="round" class="oZxpcRIq_5"></path>
<style data-made-with="vivus-instant">.oZxpcRIq_0{stroke-dasharray:360 362;stroke-dashoffset:361;animation:oZxpcRIq_draw_0 4500ms ease-in 0ms infinite,oZxpcRIq_fade 4500ms linear 0ms infinite;}.oZxpcRIq_1{stroke-dasharray:253 255;stroke-dashoffset:254;animation:oZxpcRIq_draw_1 4500ms ease-in 0ms infinite,oZxpcRIq_fade 4500ms linear 0ms infinite;}.oZxpcRIq_2{stroke-dasharray:286 288;stroke-dashoffset:287;animation:oZxpcRIq_draw_2 4500ms ease-in 0ms infinite,oZxpcRIq_fade 4500ms linear 0ms infinite;}.oZxpcRIq_3{stroke-dasharray:357 359;stroke-dashoffset:358;animation:oZxpcRIq_draw_3 4500ms ease-in 0ms infinite,oZxpcRIq_fade 4500ms linear 0ms infinite;}.oZxpcRIq_4{stroke-dasharray:311 313;stroke-dashoffset:312;animation:oZxpcRIq_draw_4 4500ms ease-in 0ms infinite,oZxpcRIq_fade 4500ms linear 0ms infinite;}.oZxpcRIq_5{stroke-dasharray:323 325;stroke-dashoffset:324;animation:oZxpcRIq_draw_5 4500ms ease-in 0ms infinite,oZxpcRIq_fade 4500ms linear 0ms infinite;}@keyframes oZxpcRIq_draw{100%{stroke-dashoffset:0;}}@keyframes oZxpcRIq_fade{0%{stroke-opacity:1;}88.88888888888889%{stroke-opacity:1;}100%{stroke-opacity:0;}}@keyframes oZxpcRIq_draw_0{0%{stroke-dashoffset: 361}12.693389592123768%{ stroke-dashoffset: 0;}100%{ stroke-dashoffset: 0;}}@keyframes oZxpcRIq_draw_1{12.693389592123768%{stroke-dashoffset: 254}21.62447257383966%{ stroke-dashoffset: 0;}100%{ stroke-dashoffset: 0;}}@keyframes oZxpcRIq_draw_2{21.62447257383966%{stroke-dashoffset: 287}31.71589310829817%{ stroke-dashoffset: 0;}100%{ stroke-dashoffset: 0;}}@keyframes oZxpcRIq_draw_3{31.71589310829817%{stroke-dashoffset: 358}44.30379746835443%{ stroke-dashoffset: 0;}100%{ stroke-dashoffset: 0;}}@keyframes oZxpcRIq_draw_4{44.303797468354425%{stroke-dashoffset: 312}55.27426160337552%{ stroke-dashoffset: 0;}100%{ stroke-dashoffset: 0;}}@keyframes oZxpcRIq_draw_5{55.27426160337552%{stroke-dashoffset: 324}66.66666666666666%{ stroke-dashoffset: 0;}100%{ stroke-dashoffset: 0;}}</style></svg>
