<svg width="306" height="182" viewBox="0 0 306 182" fill="none" xmlns="http://www.w3.org/2000/svg">
<path d="M22.3974 63.5714C21.7009 71.533 18.2073 75.2386 11.9167 74.6882L4.32366 74.0239L6.32624 51.1344L14.0667 51.8116C17.4331 52.1061 19.7339 53.2607 20.9691 55.2753C22.2309 57.2675 22.707 60.0329 22.3974 63.5714ZM12.2704 69.3708C13.5728 69.4848 14.4481 69.1033 14.8962 68.2263C15.371 67.327 15.7031 65.7961 15.8923 63.6337C16.0836 61.4467 16.0102 59.8803 15.672 58.9346C15.3584 57.991 14.5381 57.4611 13.2111 57.3451L12.1054 57.2483L11.0541 69.2644L12.2704 69.3708ZM30.3598 76.3018L24.0937 75.7536L26.0963 52.864L32.3624 53.4122L30.3598 76.3018ZM34.3513 60.5317C34.5426 58.3447 35.3352 56.6436 36.7291 55.4285C38.123 54.2133 39.9257 53.7025 42.1373 53.896C44.3734 54.0916 46.6393 54.5127 48.935 55.1593L47.6819 60.9923C45.2986 60.2142 43.6524 59.7855 42.7432 59.7059C41.5883 59.6049 40.97 60.0212 40.8883 60.955C40.856 61.3236 41.0952 61.7036 41.6057 62.0949C42.1407 62.4883 42.7842 62.916 43.5362 63.378C44.2903 63.8154 45.0368 64.3388 45.7758 64.9482C46.517 65.533 47.1149 66.3405 47.5695 67.3707C48.0487 68.4031 48.2324 69.5582 48.1206 70.8359C47.9164 73.1704 47.1318 74.9216 45.7668 76.0898C44.4017 77.2579 42.5643 77.741 40.2545 77.5389C37.9692 77.3389 35.7643 76.787 33.6396 75.8831L34.5256 70.4265C37.0882 71.4183 38.8856 71.9593 39.9176 72.0496C40.9497 72.1399 41.5055 71.7305 41.585 70.8213C41.6259 70.3544 41.3809 69.8996 40.8501 69.457C40.3439 69.0166 39.7149 68.5654 38.9629 68.1034C38.211 67.6414 37.4521 67.117 36.6864 66.53C35.9452 65.9452 35.335 65.1366 34.8558 64.1042C34.4012 63.074 34.2331 61.8832 34.3513 60.5317ZM56.3704 67.2865C56.1812 69.4489 56.2546 71.0152 56.5907 71.9855C56.9535 72.9334 57.6263 73.4504 58.6092 73.5364C59.5921 73.6224 61.0009 73.5104 62.8356 73.2004L63.3392 78.4814C61.3356 79.0242 59.3509 79.2096 57.3851 79.0376C54.4363 78.7796 52.3711 77.6209 51.1895 75.5614C50.0345 73.4795 49.6258 70.5096 49.9634 66.6516C50.303 62.7691 51.2624 59.8694 52.8415 57.9524C54.4227 56.0108 56.7983 55.1787 59.9682 55.456C61.8357 55.6194 63.5829 56.1684 65.2096 57.1031L63.7145 62.7292C61.8538 61.9226 60.5425 61.486 59.7807 61.4194C58.6995 61.3248 57.9081 61.7384 57.4066 62.6602C56.9071 63.5574 56.5617 65.0995 56.3704 67.2865ZM67.9886 58.9433C69.575 57.225 71.9778 56.5067 75.1968 56.7883C78.4158 57.07 80.6338 58.1802 81.8508 60.1189C83.0924 62.0599 83.5337 65.0822 83.1746 69.1858C82.8178 73.2649 81.8407 76.225 80.2435 78.0662C78.6463 79.9073 76.2505 80.6881 73.056 80.4086C69.8615 80.1292 67.6489 78.9575 66.4181 76.8937C65.1873 74.8299 64.7503 71.7585 65.1072 67.6794C65.4662 63.5758 66.4267 60.6637 67.9886 58.9433ZM76.8349 68.6312C77.0326 66.3705 76.9816 64.8308 76.6818 64.0123C76.4088 63.1713 75.7193 62.7024 74.6136 62.6056C73.5324 62.5111 72.7966 62.8552 72.4062 63.6382C72.0179 64.3966 71.726 65.8938 71.5304 68.1299L71.453 69.0146C71.2444 71.3981 71.2788 72.9858 71.5562 73.7777C71.8603 74.5471 72.553 74.9791 73.6342 75.0737C74.74 75.1705 75.4837 74.8765 75.8655 74.1918C76.2473 73.5072 76.536 72.0468 76.7317 69.8107L76.8349 68.6312ZM103.218 59.6113L97.3448 82.1622L87.6139 81.3109L85.4883 58.0601L92.4547 58.6696L93.1326 73.8455L93.7592 73.9003L96.5829 59.0308L103.218 59.6113ZM115.659 83.7645L103.275 82.681L105.277 59.7915L118.031 60.9072L117.169 66.5144L111.087 65.9824L110.787 69.4103L116.058 69.8714L115.632 74.7368L110.361 74.2757L110.029 78.0722L116.48 78.6365L115.659 83.7645ZM135.209 69.727C135.089 71.1031 134.78 72.2274 134.283 73.1001C133.786 73.9727 133.062 74.739 132.113 75.3987L134.321 85.3972L127.502 84.8007L125.939 76.3443L125.092 76.2701L124.369 84.5265L118.177 83.9848L120.179 61.0952L128.731 61.8434C131.188 62.0584 132.931 62.7928 133.961 64.0466C135.015 65.3025 135.431 67.196 135.209 69.727ZM126.388 72.4837C127.027 72.5396 127.498 72.3951 127.801 72.0501C128.103 71.7052 128.296 71.0536 128.38 70.0952C128.466 69.1123 128.39 68.4247 128.152 68.0325C127.916 67.6157 127.491 67.3804 126.877 67.3267L125.882 67.2396L125.43 72.3999L126.388 72.4837ZM160.827 87.7162L154.782 87.1873L150.959 76.119L150.664 76.0932L149.732 86.7455L144.129 86.2553L146.132 63.3658L152.361 63.9108L155.934 75.2915L156.229 75.3173L157.19 64.3332L162.829 64.8266L160.827 87.7162ZM176.456 89.0835L164.071 88L166.073 65.1104L178.827 66.2262L177.965 71.8334L171.883 71.3013L171.583 74.7292L176.854 75.1904L176.428 80.0558L171.157 79.5946L170.825 83.3911L177.276 83.9555L176.456 89.0835ZM203.718 68.4039L199.651 91.1128L192.058 90.4485L190.954 80.1381L190.659 80.1123L188.114 90.1035L180.484 89.436L180.091 66.3368L186.136 66.8657L186.033 79.0762L186.402 79.1084L189.011 67.1172L195.166 67.6557L195.801 79.9307L196.169 79.963L197.894 67.8944L203.718 68.4039Z" fill="white"/>
<path d="M30.0119 97.0916L22.6161 96.4446L19.9945 126.41L9.09212 125.456L11.7138 95.4907L3.87172 94.8046L5.35156 85.2332L31.4917 87.5202L30.0119 97.0916ZM58.9596 129.819L48.3123 128.888L47.6476 122.533L40.1243 121.875L38.3663 128.017L28.229 127.131L38.9612 88.1737L55.1553 89.5905L58.9596 129.819ZM47.0888 114.968L46.0957 100.619L45.6494 100.58L42.1796 114.538L47.0888 114.968ZM82.425 131.872L62.278 130.109L65.7419 90.5167L76.6442 91.4705L73.9557 122.201L83.8379 123.066L82.425 131.872ZM106.799 134.005L85.3772 132.13L88.8411 92.5376L110.901 94.4676L109.41 104.167L98.8901 103.246L98.3713 109.176L107.488 109.973L106.752 118.389L97.635 117.591L97.0605 124.158L108.218 125.134L106.799 134.005ZM140.035 136.912L129.579 135.998L122.967 116.852L122.457 116.808L120.845 135.233L111.154 134.386L114.618 94.7927L125.393 95.7354L131.572 115.421L132.082 115.466L133.745 96.4661L143.499 97.3196L140.035 136.912ZM171.285 109.451L163.889 108.804L161.267 138.77L150.365 137.816L152.987 107.851L145.145 107.164L146.624 97.593L172.765 99.8799L171.285 109.451ZM172.433 111.865C172.764 108.082 174.135 105.139 176.546 103.038C178.957 100.936 182.075 100.052 185.9 100.387C189.768 100.725 193.688 101.454 197.659 102.572L195.491 112.661C191.369 111.316 188.521 110.574 186.948 110.436C184.951 110.262 183.881 110.982 183.74 112.597C183.684 113.234 184.098 113.892 184.981 114.569C185.906 115.249 187.019 115.989 188.32 116.788C189.624 117.545 190.916 118.45 192.194 119.504C193.476 120.516 194.51 121.912 195.297 123.694C196.126 125.48 196.443 127.478 196.25 129.688C195.897 133.726 194.54 136.755 192.178 138.776C189.817 140.797 186.639 141.632 182.644 141.283C178.691 140.937 174.877 139.982 171.202 138.418L172.734 128.98C177.167 130.696 180.276 131.631 182.061 131.788C183.846 131.944 184.808 131.236 184.945 129.663C185.016 128.855 184.592 128.069 183.674 127.303C182.798 126.541 181.71 125.761 180.41 124.962C179.109 124.163 177.796 123.255 176.472 122.24C175.19 121.229 174.134 119.83 173.306 118.044C172.519 116.262 172.228 114.202 172.433 111.865Z" fill="white"/>
<mask id="mask0_401_36" style="mask-type:alpha" maskUnits="userSpaceOnUse" x="124" y="0" width="182" height="182">
<rect x="124" width="182" height="182" fill="#D9D9D9"/>
</mask>
<g mask="url(#mask0_401_36)">
<path d="M-127 83.4624L-115.462 83.355C-103.923 83.3014 -80.8467 83.0867 -57.8773 79.8667C-34.8543 76.6467 -11.9923 70.4214 11.0307 68.06C34 65.7524 57.0767 67.3624 80.046 66.128C103.069 64.84 125.931 60.7614 148.954 55.3947C171.923 50.028 195 43.3734 217.969 45.359C240.992 47.3447 263.854 57.8634 286.877 60.815C309.847 63.7667 332.923 59.1514 344.462 56.79L356 54.4824V170.939H344.462C332.923 170.939 309.847 170.939 286.877 170.939C263.854 170.939 240.992 170.939 217.969 170.939C195 170.939 171.923 170.939 148.954 170.939C125.931 170.939 103.069 170.939 80.046 170.939C57.0767 170.939 34 170.939 11.0307 170.939C-11.9923 170.939 -34.8543 170.939 -57.8773 170.939C-80.8467 170.939 -103.923 170.939 -115.462 170.939H-127V83.4624Z" fill="#62258E"/>
<path d="M-127 104.929L-115.462 104.553C-103.923 104.231 -80.8467 103.48 -57.8773 98.9184C-34.8543 94.3567 -11.9923 85.9847 11.0307 79.8131C34 73.6414 57.0767 69.6701 80.046 66.6647C103.069 63.6057 125.931 61.4591 148.954 67.0941C171.923 72.7291 195 86.1457 217.969 87.6484C240.992 89.2047 263.854 78.7934 286.877 72.9974C309.847 67.2014 332.923 65.9134 344.462 65.3231L356 64.6791V170.939H344.462C332.923 170.939 309.847 170.939 286.877 170.939C263.854 170.939 240.992 170.939 217.969 170.939C195 170.939 171.923 170.939 148.954 170.939C125.931 170.939 103.069 170.939 80.046 170.939C57.0767 170.939 34 170.939 11.0307 170.939C-11.9923 170.939 -34.8543 170.939 -57.8773 170.939C-80.8467 170.939 -103.923 170.939 -115.462 170.939H-127V104.929Z" fill="#4D2072"/>
<path d="M-127 99.0256L-115.462 101.709C-103.923 104.392 -80.8467 109.759 -57.8773 109.383C-34.8543 109.061 -11.9923 102.943 11.0307 102.89C34 102.782 57.0767 108.686 80.046 110.296C103.069 111.906 125.931 109.222 148.954 105.197C171.923 101.172 195 95.8056 217.969 95.6446C240.992 95.4299 263.854 100.475 286.877 102.782C309.847 105.09 332.923 104.768 344.462 104.553L356 104.392V170.939H344.462C332.923 170.939 309.847 170.939 286.877 170.939C263.854 170.939 240.992 170.939 217.969 170.939C195 170.939 171.923 170.939 148.954 170.939C125.931 170.939 103.069 170.939 80.046 170.939C57.0767 170.939 34 170.939 11.0307 170.939C-11.9923 170.939 -34.8543 170.939 -57.8773 170.939C-80.8467 170.939 -103.923 170.939 -115.462 170.939H-127V99.0256Z" fill="#3A1A56"/>
<path d="M22.3974 63.5714C21.7009 71.533 18.2073 75.2386 11.9167 74.6882L4.32366 74.0239L6.32624 51.1344L14.0667 51.8116C17.4331 52.1061 19.7339 53.2607 20.9691 55.2753C22.2309 57.2675 22.707 60.0329 22.3974 63.5714ZM12.2704 69.3708C13.5728 69.4848 14.4481 69.1033 14.8962 68.2263C15.371 67.327 15.7031 65.7961 15.8923 63.6337C16.0836 61.4467 16.0102 59.8803 15.672 58.9346C15.3584 57.991 14.5381 57.4611 13.2111 57.3451L12.1054 57.2483L11.0541 69.2644L12.2704 69.3708ZM30.3598 76.3018L24.0937 75.7536L26.0963 52.864L32.3624 53.4122L30.3598 76.3018ZM34.3513 60.5317C34.5426 58.3447 35.3352 56.6436 36.7291 55.4285C38.123 54.2133 39.9257 53.7025 42.1373 53.896C44.3734 54.0916 46.6393 54.5127 48.935 55.1593L47.6819 60.9923C45.2986 60.2142 43.6524 59.7855 42.7432 59.7059C41.5883 59.6049 40.97 60.0212 40.8883 60.955C40.856 61.3236 41.0952 61.7036 41.6057 62.0949C42.1407 62.4883 42.7842 62.916 43.5362 63.378C44.2903 63.8154 45.0368 64.3388 45.7758 64.9482C46.517 65.533 47.1149 66.3405 47.5695 67.3707C48.0487 68.4031 48.2324 69.5582 48.1206 70.8359C47.9164 73.1704 47.1318 74.9216 45.7668 76.0898C44.4017 77.2579 42.5643 77.741 40.2545 77.5389C37.9692 77.3389 35.7643 76.787 33.6396 75.8831L34.5256 70.4265C37.0882 71.4183 38.8856 71.9593 39.9176 72.0496C40.9497 72.1399 41.5055 71.7305 41.585 70.8213C41.6259 70.3544 41.3809 69.8996 40.8501 69.457C40.3439 69.0166 39.7149 68.5654 38.9629 68.1034C38.211 67.6414 37.4521 67.117 36.6864 66.53C35.9452 65.9452 35.335 65.1366 34.8558 64.1042C34.4012 63.074 34.2331 61.8832 34.3513 60.5317ZM56.3704 67.2865C56.1812 69.4489 56.2546 71.0152 56.5907 71.9855C56.9535 72.9334 57.6263 73.4504 58.6092 73.5364C59.5921 73.6224 61.0009 73.5104 62.8356 73.2004L63.3392 78.4814C61.3356 79.0242 59.3509 79.2096 57.3851 79.0376C54.4363 78.7796 52.3711 77.6209 51.1895 75.5614C50.0345 73.4795 49.6258 70.5096 49.9634 66.6516C50.303 62.7691 51.2624 59.8694 52.8415 57.9524C54.4227 56.0108 56.7983 55.1787 59.9682 55.456C61.8357 55.6194 63.5829 56.1684 65.2096 57.1031L63.7145 62.7292C61.8538 61.9226 60.5425 61.486 59.7807 61.4194C58.6995 61.3248 57.9081 61.7384 57.4066 62.6602C56.9071 63.5574 56.5617 65.0995 56.3704 67.2865ZM67.9886 58.9433C69.575 57.225 71.9778 56.5067 75.1968 56.7883C78.4158 57.07 80.6338 58.1802 81.8508 60.1189C83.0924 62.0599 83.5337 65.0822 83.1746 69.1858C82.8178 73.2649 81.8407 76.225 80.2435 78.0662C78.6463 79.9073 76.2505 80.6881 73.056 80.4086C69.8615 80.1292 67.6489 78.9575 66.4181 76.8937C65.1873 74.8299 64.7503 71.7585 65.1072 67.6794C65.4662 63.5758 66.4267 60.6637 67.9886 58.9433ZM76.8349 68.6312C77.0326 66.3705 76.9816 64.8308 76.6818 64.0123C76.4088 63.1713 75.7193 62.7024 74.6136 62.6056C73.5324 62.5111 72.7966 62.8552 72.4062 63.6382C72.0179 64.3966 71.726 65.8938 71.5304 68.1299L71.453 69.0146C71.2444 71.3981 71.2788 72.9858 71.5562 73.7777C71.8603 74.5471 72.553 74.9791 73.6342 75.0737C74.74 75.1705 75.4837 74.8765 75.8655 74.1918C76.2473 73.5072 76.536 72.0468 76.7317 69.8107L76.8349 68.6312ZM103.218 59.6113L97.3448 82.1622L87.6139 81.3109L85.4883 58.0601L92.4547 58.6696L93.1326 73.8455L93.7592 73.9003L96.5829 59.0308L103.218 59.6113ZM115.659 83.7645L103.275 82.681L105.277 59.7915L118.031 60.9072L117.169 66.5144L111.087 65.9824L110.787 69.4103L116.058 69.8714L115.632 74.7368L110.361 74.2757L110.029 78.0722L116.48 78.6365L115.659 83.7645ZM135.209 69.727C135.089 71.1031 134.78 72.2274 134.283 73.1001C133.786 73.9727 133.062 74.739 132.113 75.3987L134.321 85.3972L127.502 84.8007L125.939 76.3443L125.092 76.2701L124.369 84.5265L118.177 83.9848L120.179 61.0952L128.731 61.8434C131.188 62.0584 132.931 62.7928 133.961 64.0466C135.015 65.3025 135.431 67.196 135.209 69.727ZM126.388 72.4837C127.027 72.5396 127.498 72.3951 127.801 72.0501C128.103 71.7052 128.296 71.0536 128.38 70.0952C128.466 69.1123 128.39 68.4247 128.152 68.0325C127.916 67.6157 127.491 67.3804 126.877 67.3267L125.882 67.2396L125.43 72.3999L126.388 72.4837ZM160.827 87.7162L154.782 87.1873L150.959 76.119L150.664 76.0932L149.732 86.7455L144.129 86.2553L146.132 63.3658L152.361 63.9108L155.934 75.2915L156.229 75.3173L157.19 64.3332L162.829 64.8266L160.827 87.7162ZM176.456 89.0835L164.071 88L166.073 65.1104L178.827 66.2262L177.965 71.8334L171.883 71.3013L171.583 74.7292L176.854 75.1904L176.428 80.0558L171.157 79.5946L170.825 83.3911L177.276 83.9555L176.456 89.0835ZM203.718 68.4039L199.651 91.1128L192.058 90.4485L190.954 80.1381L190.659 80.1123L188.114 90.1035L180.484 89.436L180.091 66.3368L186.136 66.8657L186.033 79.0762L186.402 79.1084L189.011 67.1172L195.166 67.6557L195.801 79.9307L196.169 79.963L197.894 67.8944L203.718 68.4039Z" fill="white"/>
<path d="M30.0119 97.0916L22.6161 96.4446L19.9945 126.41L9.09212 125.456L11.7138 95.4907L3.87172 94.8046L5.35156 85.2332L31.4917 87.5202L30.0119 97.0916ZM58.9596 129.819L48.3123 128.888L47.6476 122.533L40.1243 121.875L38.3663 128.017L28.229 127.131L38.9612 88.1737L55.1553 89.5905L58.9596 129.819ZM47.0888 114.968L46.0957 100.619L45.6494 100.58L42.1796 114.538L47.0888 114.968ZM82.425 131.872L62.278 130.109L65.7419 90.5167L76.6442 91.4705L73.9557 122.201L83.8379 123.066L82.425 131.872ZM106.799 134.005L85.3772 132.13L88.8411 92.5376L110.901 94.4676L109.41 104.167L98.8901 103.246L98.3713 109.176L107.488 109.973L106.752 118.389L97.635 117.591L97.0605 124.158L108.218 125.134L106.799 134.005ZM140.035 136.912L129.579 135.998L122.967 116.852L122.457 116.808L120.845 135.233L111.154 134.386L114.618 94.7927L125.393 95.7354L131.572 115.421L132.082 115.466L133.745 96.4661L143.499 97.3196L140.035 136.912ZM171.285 109.451L163.889 108.804L161.267 138.77L150.365 137.816L152.987 107.851L145.145 107.164L146.624 97.593L172.765 99.8799L171.285 109.451ZM172.433 111.865C172.764 108.082 174.135 105.139 176.546 103.038C178.957 100.936 182.075 100.052 185.9 100.387C189.768 100.725 193.688 101.454 197.659 102.572L195.491 112.661C191.369 111.316 188.521 110.574 186.948 110.436C184.951 110.262 183.881 110.982 183.74 112.597C183.684 113.234 184.098 113.892 184.981 114.569C185.906 115.249 187.019 115.989 188.32 116.788C189.624 117.545 190.916 118.45 192.194 119.504C193.476 120.516 194.51 121.912 195.297 123.694C196.126 125.48 196.443 127.478 196.25 129.688C195.897 133.726 194.54 136.755 192.178 138.776C189.817 140.797 186.639 141.632 182.644 141.283C178.691 140.937 174.877 139.982 171.202 138.418L172.734 128.98C177.167 130.696 180.276 131.631 182.061 131.788C183.846 131.944 184.808 131.236 184.945 129.663C185.016 128.855 184.592 128.069 183.674 127.303C182.798 126.541 181.71 125.761 180.41 124.962C179.109 124.163 177.796 123.255 176.472 122.24C175.19 121.229 174.134 119.83 173.306 118.044C172.519 116.262 172.228 114.202 172.433 111.865Z" fill="white"/>
<path d="M-127 121.029L-115.462 121.727C-103.923 122.478 -80.8467 123.873 -57.8773 121.941C-34.8543 119.956 -11.9923 114.589 11.0307 111.798C34 109.061 57.0767 108.847 80.046 112.818C103.069 116.736 125.931 124.786 148.954 129.347C171.923 133.909 195 134.982 217.969 133.641C240.992 132.299 263.854 128.542 286.877 124.893C309.847 121.19 332.923 117.648 344.462 115.823L356 114.052V170.939H344.462C332.923 170.939 309.847 170.939 286.877 170.939C263.854 170.939 240.992 170.939 217.969 170.939C195 170.939 171.923 170.939 148.954 170.939C125.931 170.939 103.069 170.939 80.046 170.939C57.0767 170.939 34 170.939 11.0307 170.939C-11.9923 170.939 -34.8543 170.939 -57.8773 170.939C-80.8467 170.939 -103.923 170.939 -115.462 170.939H-127V121.029Z" fill="#28143C"/>
<path d="M-127 151.082L-115.462 149.204C-103.923 147.326 -80.8467 143.569 -57.8773 144.267C-34.8543 145.018 -11.9923 150.17 11.0307 152.048C34 153.927 57.0767 152.531 80.046 150.17C103.069 147.862 125.931 144.642 148.954 143.569C171.923 142.496 195 143.569 217.969 145.447C240.992 147.326 263.854 150.009 286.877 150.17C309.847 150.385 332.923 148.023 344.462 146.896L356 145.716V170.939H344.462C332.923 170.939 309.847 170.939 286.877 170.939C263.854 170.939 240.992 170.939 217.969 170.939C195 170.939 171.923 170.939 148.954 170.939C125.931 170.939 103.069 170.939 80.046 170.939C57.0767 170.939 34 170.939 11.0307 170.939C-11.9923 170.939 -34.8543 170.939 -57.8773 170.939C-80.8467 170.939 -103.923 170.939 -115.462 170.939H-127V151.082Z" fill="#190B23"/>
</g>
</svg>
